Coordinates
version=1
nRows=28
nColumns=33
inDegrees=yes

Units are S.I. units (second, meters, Newtons, ...)
Angles are in degrees.

endheader
time	ground_thorax_rot_x	ground_thorax_rot_y	ground_thorax_rot_z	ground_thorax_tx	ground_thorax_ty	ground_thorax_tz	clav_prot_r	clav_elev_r	scapula_abduction_r	scapula_elevation_r	scapula_upward_rot_r	scapula_winging_r	shoulder_elv_r	plane_of_elev_r	axial_rot_r	elbow_flexion_r	pro_sup_r	wrist_flex_r	wrist_dev_r	clav_prot_l	clav_elev_l	scapula_abduction_l	scapula_elevation_l	scapula_upward_rot_l	scapula_winging_l	shoulder_elv_l	plane_of_elev_l	axial_rot_l	elbow_flexion_l	pro_sup_l	wrist_flex_l	wrist_dev_l	
4.4900	-30.903429	-27.451932	35.923162	-41.311276	780.621537	12.064502	11.004730	-45.000000	41.507471	-45.000000	-45.000000	-3693.160759	-2991.496446	148.259282	180.000000	1441.388810	55.459366	21.188494	16.082306	16.320069	38.517617	-36.822913	-45.000000	-44.997145	1515.592275	-4614.215715	26.044163	-8.813791	-1075.359272	41.183467	9.616277	-21.890687	
4.5000	-31.169220	-27.331915	35.630362	-42.873824	781.586533	12.293553	10.919328	-45.000000	41.542663	-45.000000	-45.000000	-3693.256761	-2991.282066	148.142223	180.000000	1441.629399	55.145940	21.361781	16.138920	16.360164	38.628101	-37.061448	-45.000000	-44.994890	1515.931778	-4614.081884	26.273487	-8.380368	-1075.202367	40.992503	9.574087	-21.908915	
4.5100	-31.449324	-27.197969	35.318114	-44.527979	782.579907	12.504411	10.829824	-45.000000	41.581205	-45.000000	-45.000000	-3693.351204	-2991.061292	148.027669	180.000000	1441.894593	54.831131	21.534437	16.192564	16.401649	38.755114	-37.313277	-45.000000	-44.990836	1516.279866	-4613.944203	26.497312	-7.903439	-1075.043009	40.768936	9.545405	-21.917172	
4.5200	-31.750915	-27.034103	34.957996	-46.381632	783.627181	12.681641	10.792947	-45.000000	41.650796	-45.000000	-45.000000	-3693.458271	-2990.824080	147.907260	180.000000	1442.192788	54.487036	21.742545	16.198678	16.456661	38.853022	-37.577723	-45.000000	-44.983615	1516.604094	-4613.769897	26.690176	-7.305891	-1074.894237	40.478369	9.514929	-21.940468	
4.5300	-32.083972	-26.830493	34.534908	-48.450822	784.740687	12.818783	10.786364	-45.000000	41.744784	-45.000000	-45.000000	-3693.570052	-2990.567628	147.780767	180.000000	1442.533675	54.127221	21.974389	16.167593	16.520092	38.941609	-37.863474	-45.000000	-44.970566	1516.924169	-4613.570024	26.864651	-6.613397	-1074.749987	40.110695	9.493840	-21.965861	
4.5400	-32.449721	-26.583130	34.044617	-50.766606	785.936694	12.908754	10.806650	-45.000000	41.862140	-45.000000	-45.000000	-3693.689253	-2990.289709	147.645954	180.000000	1442.917098	53.758910	22.227676	16.097544	16.594521	39.016037	-38.164910	-45.000000	-44.947508	1517.243711	-4613.342384	27.025232	-5.837076	-1074.610649	39.650308	9.484282	-21.989101	
4.5500	-32.850154	-26.288165	33.480511	-53.334369	787.228059	12.949416	10.841616	-45.000000	41.995273	-45.000000	-45.000000	-3693.811266	-2989.987524	147.501816	180.000000	1443.341246	53.394808	22.495077	15.990814	16.678183	39.089099	-38.473666	-45.000000	-44.905323	1517.569452	-4613.090239	27.176966	-5.021589	-1074.469907	39.092008	9.486336	-22.004456	
4.5600	-33.277726	-25.949476	32.856282	-56.147995	788.625224	12.942402	10.881428	-45.000000	42.137387	-45.000000	-45.000000	-3693.943952	-2989.664937	147.345750	180.000000	1443.792200	53.048875	22.768449	15.853399	16.770345	39.149798	-38.772508	-45.000000	-44.832218	1517.906005	-4612.818206	27.327393	-4.207485	-1074.326722	38.433793	9.499940	-22.007388	
4.5700	-33.739889	-25.555225	32.155094	-59.199666	790.136775	12.892358	10.921680	-45.000000	42.282353	-45.000000	-45.000000	-3694.082399	-2989.321026	147.172654	180.000000	1444.264645	52.728888	23.047873	15.680552	16.861073	39.205115	-39.055430	-45.000000	-44.694397	1518.260203	-4612.536734	27.472886	-3.459498	-1074.172879	37.688289	9.518214	-22.002980	
4.5800	-34.231803	-25.106006	31.385002	-62.480747	791.768040	12.805378	10.960156	-45.000000	42.423620	-45.000000	-45.000000	-3694.228452	-2988.957622	146.984337	180.000000	1444.746866	52.441497	23.329114	15.471498	16.943458	39.257319	-39.311481	-45.000000	-44.466691	1518.632877	-4612.252751	27.605123	-2.818241	-1074.005790	36.867840	9.536272	-21.993645	
4.5900	-34.753548	-24.598312	30.542197	-65.981414	793.519905	12.688282	10.993128	-45.000000	42.555805	-45.000000	-45.000000	-3694.371789	-2988.571413	146.787505	180.000000	1445.235693	52.189932	23.607049	15.222321	17.005911	39.329382	-39.546169	-45.000000	-44.130941	1519.025947	-4611.976566	27.705164	-2.327749	-1073.818733	35.991351	9.547976	-21.982687	
4.6000	-35.292473	-24.038156	29.645257	-69.693116	795.387376	12.547100	11.022202	-45.000000	42.677049	-45.000000	-45.000000	-3694.517272	-2988.164791	146.587981	180.000000	1445.719830	51.977468	23.875827	14.935744	17.042970	39.414575	-39.761114	-45.000000	-43.705025	1519.437237	-4611.710469	27.772283	-1.991304	-1073.614349	35.067056	9.552779	-21.971302	
4.6100	-35.844310	-23.425362	28.698194	-73.606973	797.359936	12.386920	11.046800	-45.000000	42.786496	-45.000000	-45.000000	-3694.660871	-2987.738636	146.393022	180.000000	1446.194860	51.805591	24.129623	14.612613	17.048754	39.520763	-39.968510	-45.000000	-43.204762	1519.867344	-4611.457488	27.801796	-1.821346	-1073.391022	34.106882	9.548296	-21.960808	
4.6200	-36.390666	-22.774708	27.728721	-77.713967	799.422132	12.211443	11.068407	-45.000000	42.883346	-45.000000	-45.000000	-3694.811026	-2987.299337	146.209832	180.000000	1446.649386	51.675474	24.361334	14.260622	17.030330	39.638456	-40.164129	-45.000000	-42.669278	1520.308159	-4611.210674	27.798320	-1.801777	-1073.152776	33.111916	9.533872	-21.949019	
4.6300	-36.915308	-22.102712	26.765001	-82.003041	801.555436	12.023244	11.088255	-45.000000	42.966988	-45.000000	-45.000000	-3694.972787	-2986.854072	146.045733	180.000000	1447.070987	51.587067	24.561655	13.886965	16.998116	39.761155	-40.348098	-45.000000	-42.133550	1520.751821	-4610.965567	27.758380	-1.921312	-1072.902755	32.083821	9.508544	-21.933197	
4.6400	-37.404562	-21.422208	25.831160	-86.461691	803.739270	11.823899	11.106655	-45.000000	43.039303	-45.000000	-45.000000	-3695.158387	-2986.415025	145.901909	180.000000	1447.450767	51.540742	24.730891	13.505689	16.957612	39.869952	-40.513472	-45.000000	-41.636995	1521.191455	-4610.716681	27.696913	-2.148781	-1072.648770	31.016000	9.477207	-21.911795	
4.6500	-37.855021	-20.739011	24.938912	-91.074938	805.952672	11.614562	11.122038	-45.000000	43.098596	-45.000000	-45.000000	-3695.367370	-2985.990552	145.782481	180.000000	1447.782585	51.536370	24.869123	13.127227	16.910852	39.964309	-40.659675	-45.000000	-41.189299	1521.622602	-4610.464510	27.615089	-2.467264	-1072.396337	29.906045	9.443086	-21.883410	
4.6600	-38.263843	-20.059217	24.091800	-95.826732	808.174995	11.396477	11.130791	-45.000000	43.147541	-45.000000	-45.000000	-3695.598665	-2985.587626	145.687384	180.000000	1448.066128	51.573209	24.984522	12.765522	16.856908	40.043857	-40.781679	-45.000000	-40.802676	1522.041267	-4610.210057	27.520568	-2.851148	-1072.154978	28.746542	9.412665	-21.846619	
4.6700	-38.631169	-19.388248	23.300061	-100.700658	810.386925	11.171333	11.135011	-45.000000	43.176422	-45.000000	-45.000000	-3695.847284	-2985.212338	145.617694	180.000000	1448.292704	51.649843	25.074370	12.427060	16.797766	40.106995	-40.883823	-45.000000	-40.479475	1522.447442	-4609.958944	27.412164	-3.286449	-1071.930735	27.536624	9.392629	-21.800724	
4.6800	-38.955902	-18.728917	22.561204	-105.681228	812.570898	10.941839	11.134021	-45.000000	43.194480	-45.000000	-45.000000	-3696.113789	-2984.869324	145.570873	180.000000	1448.465778	51.762110	25.149711	12.123745	16.729733	40.150224	-40.961290	-45.000000	-40.227459	1522.836471	-4609.712352	27.300323	-3.736860	-1071.733549	26.269063	9.392185	-21.744905	
4.6900	-39.241224	-18.079841	21.874241	-110.753522	814.712254	10.711628	11.130551	-45.000000	43.198985	-45.000000	-45.000000	-3696.393651	-2984.560528	145.547463	180.000000	1448.583733	51.901493	25.210705	11.859974	16.654576	40.174163	-41.016913	-45.000000	-40.039331	1523.207968	-4609.475903	27.187504	-4.184241	-1071.567878	24.944645	9.416972	-21.678284	
4.7000	-39.488669	-17.439161	21.229440	-115.902824	816.799864	10.485080	11.124820	-45.000000	43.195553	-45.000000	-45.000000	-3696.689074	-2984.288071	145.539492	180.000000	1448.652498	52.054044	25.264836	11.643791	16.573578	40.176450	-41.049377	-45.000000	-39.910975	1523.558619	-4609.253694	27.078683	-4.609161	-1071.441832	23.566335	9.472199	-21.599760	
4.7100	-39.701452	-16.807865	20.628397	-121.113752	818.826641	10.266683	11.120198	-45.000000	43.173363	-45.000000	-45.000000	-3696.992612	-2984.052435	145.546408	180.000000	1448.664497	52.200476	25.304708	11.476319	16.492758	40.162692	-41.062601	-45.000000	-39.831172	1523.893412	-4609.053037	26.969015	-5.025328	-1071.346797	22.149404	9.554805	-21.510758	
4.7200	-39.879445	-16.186123	20.069181	-126.369469	820.789348	10.060944	11.117119	-45.000000	43.135887	-45.000000	-45.000000	-3697.305558	-2983.854213	145.564780	180.000000	1448.620328	52.317476	25.335116	11.365467	16.409468	40.134561	-41.055885	-45.000000	-39.801037	1524.209976	-4608.872670	26.861011	-5.432086	-1071.279965	20.709649	9.661590	-21.413048	
4.7300	-40.024607	-15.573060	19.550195	-131.650980	822.688332	9.872133	11.113334	-45.000000	43.082228	-45.000000	-45.000000	-3697.620369	-2983.690700	145.598275	180.000000	1448.517089	52.377937	25.356892	11.316310	16.323756	40.096356	-41.031406	-45.000000	-39.818431	1524.508819	-4608.713237	26.754104	-5.833458	-1071.232662	19.265138	9.783391	-21.308416	
4.7400	-40.136474	-14.971595	19.074612	-136.937311	824.526679	9.704236	11.113062	-45.000000	43.007842	-45.000000	-45.000000	-3697.937079	-2983.559539	145.643795	180.000000	1448.351629	52.353623	25.374891	11.336696	16.235241	40.041609	-40.988737	-45.000000	-39.908045	1524.781518	-4608.561704	26.656879	-6.208835	-1071.208752	17.827883	9.915090	-21.196583	
4.7500	-40.214535	-14.386626	18.636923	-142.205675	826.309046	9.560762	11.108790	-45.000000	42.928114	-45.000000	-45.000000	-3698.258604	-2983.461035	145.696862	180.000000	1448.128306	52.217638	25.396994	11.432269	16.149600	39.962123	-40.922695	-45.000000	-40.075800	1525.024449	-4608.414917	26.570193	-6.530624	-1071.200741	16.405740	10.044487	-21.078355	
4.7600	-40.256948	-13.818898	18.233461	-147.433338	828.040610	9.444481	11.100644	-45.000000	42.845325	-45.000000	-45.000000	-3698.581592	-2983.385391	145.757302	180.000000	1447.851168	51.939511	25.437127	11.611569	16.065416	39.848209	-40.822628	-45.000000	-40.370319	1525.212324	-4608.243341	26.518731	-6.677494	-1071.225367	14.967647	10.184369	-20.946516	
